<svg xmlns="http://www.w3.org/2000/svg" version="1.1" width="550px" height="400px" viewBox="0 0 1100 800">

  <rect x="0" y="0" width="1100" height="800" fill="#F1DBC3" />

  <g id="belgium" transform="translate(50,50)" >
    <rect x="0" y="0" width="100" height="200" fill="black" />
    <rect x="100" y="0" width="100" height="200" fill="#fedd02" />
    <rect x="200" y="0" width="100" height="200" fill="#ee1b2a" />
  </g>

  <g id="netherlands" transform="translate(400,50)" >
    <rect x="0" y="0" width="300" height="200" fill="white" />
    <rect x="0" y="0" width="300" height="66.66" fill="#a21d22" />
    <rect x="0" y="133.333" width="300" height="66.66" fill="#263e86" />
  </g>

  <g id="norway" transform="translate(750,50)" >
    <rect x="0" y="0" width="300" height="200" fill="#fe0000" />
    <line x1="0" y1="100" x2="300" y2="100" stroke="white" stroke-width="40"/>
    <line x1="100" y1="0" x2="100" y2="200" stroke="white" stroke-width="40"/>
    <line x1="0" y1="100" x2="300" y2="100" stroke="#042568" stroke-width="20"/>
    <line x1="100" y1="0" x2="100" y2="200" stroke="#042568" stroke-width="20"/>
  </g>

  <g id="greece" transform="translate(50,300)" >
    <rect x="0" y="0" width="300" height="200" fill="#3b50a9" />
    <line x1="150" y1="0" x2="150" y2="200" stroke="white" stroke-width="300" stroke-dasharray="22.222 22.222" stroke-dashoffset="22.22" />
    <rect x="0" y="0" width="111.111" height="111.111" fill="#3b50a9" />
    <line x1="0" y1="55.555" x2="111.111" y2="55.555" stroke="white" stroke-width="22.222" />
    <line x1="55.555" y1="0" x2="55.555" y2="112.111" stroke="white" stroke-width="22.222" />
  </g>

  <g id="switzerland" transform="translate(400,300)" >
    <rect x="0" y="0" width="300" height="200" fill="#d82b25" />
    <line x1="100" y1="100" x2="200" y2="100" stroke="white" stroke-width="40"/>
    <line x1="150" y1="50" x2="150" y2="150" stroke="white" stroke-width="40" />
  </g>

  <g id="czechia" transform="translate(750,300)" >
    <rect x="0" y="0" width="300" height="100" fill="white" />
    <rect x="0" y="100" width="300" height="100" fill="#d7141b" />
    <polygon points="0,0, 125,100, 0,200" stroke="none" fill="#11467f" />
  </g>

  <g id="japan" transform="translate(50,550)" >
    <rect x="0" y="0" width="300" height="200" fill="white" />
    <circle cx="150" cy="100" r="50" fill="#d7141b" stroke="none" />
  </g>

  <g id="xxx" transform="translate(400,550)" >
    <rect x="0" y="0" width="300" height="200" fill="none" stroke="black" stroke-width="0.5" stroke-dasharray="10,10" />
  </g>

  <g id="yyy" transform="translate(750,550)" >
    <rect x="0" y="0" width="300" height="200" fill="none" stroke="black" stroke-width="0.5" stroke-dasharray="10,10" />
  </g>

</svg>
