<svg id="ladybug" xmlns="http://www.w3.org/2000/svg" width="200px" version="1.1" height="200px" viewBox="-100 -100 200 200">

  <defs>
    <clipPath id="lichaam-contour">
      <circle cx="0" cy="40" r="60" />
    </clipPath>
    <radialGradient id="licht" cx="0.35" cy="0.70" r="0.35">
      <stop offset="0%" stop-color="rgb(255,255,255,0.75)" />
      <stop offset="100%" stop-color="rgb(255,0,0,0.0)" />
    </radialGradient>
  </defs>

  <rect x="-100" y="-100" width="200" height="200" fill="#F5F1EB" />

  <g transform="translate(-10,-15)">
  <g transform="rotate(20,0,40)">
  <circle class="hoofd" cx="0" cy="-12" r="30" fill="black" />
  <circle class="lichaam" cx="0" cy="40" r="60" fill="#ee5564" />
  <polygon fill="black" points="0,-10 6,100 -6,100" clip-path="url(#lichaam-contour)" />
  <circle cx="-20" cy="10" r="6" fill="black" />
  <circle cx="20" cy="10" r="6" fill="black" />
  <circle cx="-40" cy="40" r="6" fill="black" />
  <circle cx="40" cy="40" r="6" fill="black" />
  <circle cx="-25" cy="70" r="6" fill="black" />
  <circle cx="25" cy="70" r="6" fill="black" />
  <circle cx="-40" cy="-60" r="3" fill="black" />
  <circle cx="40" cy="-60" r="3" fill="black" />

  <path stroke="black" stroke-width="3" d="M0,-27 Q0,-50,-40,-60" fill="none" />
  <path stroke="black" stroke-width="3" d="M0,-27 Q0,-50,40,-60" fill="none" />
  <circle cx="0" cy="40" r="60" fill="url(#licht)"/>
  </g>
  </g>

</svg>
