<svg xmlns="http://www.w3.org/2000/svg" version="1.1" width="200px" height="200px" viewBox="-120 -120 240 240">

  <defs>
    <radialGradient id="licht" cx="0.25" cy="0.20" r="0.35">
      <stop offset="0%" stop-color="rgb(255,255,255,0.75)" />
      <stop offset="100%" stop-color="rgb(255,0,0,0.0)" />
    </radialGradient>
    <radialGradient id="donker" cx="0.25" cy="0.25" r="1">
      <stop offset="0%" stop-color="white" />
      <stop offset="50%" stop-color="white" />
      <stop offset="100%" stop-color="#d6d6d6" />
    </radialGradient>
  </defs>

  <style>
    .rooster {
      display: none;
    }
    .rooster path {
      fill: none;
      stroke: royalblue;
      stroke-width: 600;
    }
  </style>

  <rect x="-100" y="-100" width="200" height="200" fill="#F5F1EB" />

  <g class="rooster">
    <path d="M-90,0 L180,0" stroke-dasharray="0.2,9.6,0.2,0"></path>
    <path d="M0,-90 L0,180" stroke-dasharray="0.2,9.6,0.2,0"></path>
    <path d="M-90,0 L180,0" stroke-dasharray="1,98,1,0"></path>
    <path d="M0,-90 L0,180" stroke-dasharray="1,98,1,0"></path>
  </g>

  <path stroke="none" fill="rgb(255,0,0,0.6)" d="
    M -90,0
    L 90,0
    A 90,90,0,0,0,-90,0"
  />
  <path stroke="none" fill="url(#donker)" d="
    M -90,0
    L 90,0
    A 90,90,0,0,1,-90,0"
  />

  <line x1="-90" y1="0" x2="90" y2="0" stroke="black" stroke-width="6" />
  <circle cx="0" cy="0" r="30" fill="white" stroke="black" stroke-width="6" />
  <circle cx="0" cy="0" r="20" fill="white" stroke="black" stroke-width="6" />
  <circle cx="0" cy="0" r="90" fill="url(#licht)"/>
  <circle cx="0" cy="0" r="90" fill="none" stroke="black" stroke-width="6" />

</svg>
