<svg xmlns="http://www.w3.org/2000/svg" width="280px" version="1.1" height="180px" viewBox="-70 -45 140 90">

  <style>
    .chalk {
      fill: none;
      stroke: white;
      stroke-width: 0.5;
    }
  </style>

  <defs>
    <clipPath id="speelveld">
      <rect x="-43.5" y="-10" width="10" height="20"  />
    </clipPath>
    <g id="half">
      <rect class="chalk" x="-60" y="-20.16" width="16.5" height="40.32" />
      <rect class="chalk" x="-60" y="-9.16" width="5.5" height="18.32" />
      <circle cx="-49" cy="0" r=".5" fill="white" stroke="none" />
      <circle class="chalk" cx="-49" cy="0" r="9.15" fill="none" clip-path="url(#speelveld)" />
      <path class="chalk" d="M-60,39 A1,1,0,0,1,-59,40" />
      <path class="chalk" d="M-60,-39 A1,1,0,0,0,-59,-40" />
      <rect class="chalk" x="-64" y="-3.66" width="4" height="7.32" />
      <line x1="-64" y1="0" x2="-60" y2="0" fill="none" stroke="white" stroke-width="7.32" stroke-dasharray="0.1 0.4" />
      <line x1="-62" y1="-3.66" x2="-62" y2="3.66" fill="none" stroke="white" stroke-width="4" stroke-dasharray="0.1 0.4" />
    </g>
  </defs>

  <rect x="-70" y="-50" width="140" height="100" fill="#3fb55d" stroke="none" />
  <line x1="-70" y1="0" x2="70" y2="0" stroke="#32ac57" stroke-width="100" stroke-dasharray="2.5 5 2.5 0" />

  <rect class="chalk" x="-60" y="-40" width="120" height="80" />
  <line class="chalk" x1="0" y1="-40" x2="0" y2="40" />
  <use href="#half" x="0" y="0" />
  <use href="#half" x="0" y="0" transform="scale(-1.0)" />

  <circle cx="0" cy="0" r=".5" fill="white" stroke="none" />
  <circle class="chalk" cx="0" cy="0" r="9.15" />

</svg>
